inDegrees=yes
name=ik_lifting_orientations
DataType=double
version=3
OpenSimVersion=4.5-2024-01-10-34fd6af
endheader
time	pelvis_tilt	pelvis_list	pelvis_rotation	pelvis_tx	pelvis_ty	pelvis_tz	hip_flexion_r	hip_adduction_r	hip_rotation_r	knee_angle_r	knee_angle_r_beta	ankle_angle_r	subtalar_angle_r	mtp_angle_r	hip_flexion_l	hip_adduction_l	hip_rotation_l	knee_angle_l	knee_angle_l_beta	ankle_angle_l	subtalar_angle_l	mtp_angle_l	lumbar_extension	lumbar_bending	lumbar_rotation	arm_flex_r	arm_add_r	arm_rot_r	elbow_flex_r	pro_sup_r	wrist_flex_r	wrist_dev_r	arm_flex_l	arm_add_l	arm_rot_l	elbow_flex_l	pro_sup_l	wrist_flex_l	wrist_dev_l
1.49	-42.9731318048719	-8.277837063442274	-157.9236306380471	0	0.9399999998679526	0	44.99559436755982	-10.14324668040202	0	59.99791280747147	1.047161122814852	-5.037676994797198	0	0	44.99559436755982	-10.14324668040202	0	59.99791280747147	1.047161122814852	-5.037676994797198	0	0	-89.95592275759905	2.067153640822527	36.80016924565369	54.41962276123005	-29.96547540116736	66.71462016484864	34.47022863638054	1.460984186504319	0	0	0	-11.89160929924253	0	88.56787251010472	1.460984186504319	0	0
1.5	-42.65506087127547	-8.192602296376613	-157.9762857089952	0	0.9399999998679526	0	44.99559573764959	-10.14309048597111	0	59.99791334963278	1.047161132277352	-5.037623371694639	0	0	44.99559573764959	-10.14309048597111	0	59.99791334963278	1.047161132277352	-5.037623371694639	0	0	-89.95514700923933	2.033208571630745	36.54767920185607	54.96799880433696	-30.01039743433221	66.65354421821782	34.96796517510411	1.460668351798614	0	0	0	-11.89210354206529	0	88.56818206605297	1.460668351798614	0	0
1.51	-42.44487655499602	-8.198701578412608	-158.043080114661	0	0.9399999998679526	0	44.99559716352138	-10.14292797550296	0	59.99791391362475	1.047161142120869	-5.037567594707549	0	0	44.99559716352138	-10.14292797550296	0	59.99791391362475	1.047161142120869	-5.037567594707549	0	0	-89.94630722990323	1.976694115056226	36.49467501081634	55.28067899235439	-30.06392417324807	66.45753584960238	34.76810711451052	1.460339687962236	0	0	0	-11.89261780614498	0	88.56850419608941	1.460339687962236	0	0
1.52	-42.23402507770159	-8.244454527548317	-158.0793685185904	0	0.9399999998679526	0	44.99559829865476	-10.14279874547519	0	59.99791436275306	1.047161149959636	-5.037523258323122	0	0	44.99559829865476	-10.14279874547519	0	59.99791436275306	1.047161149959636	-5.037523258323122	0	0	-89.92675078127952	1.951085157228033	36.46234994229746	55.5056174921262	-30.13779789576059	66.27605235873908	34.54748486780143	1.460077990942894	0	0	0	-11.89302733989977	0	88.56876069060404	1.460077990942894	0	0
1.53	-41.84563624503227	-8.353418324167203	-157.9479903203527	0	0.9399999998679526	0	44.9955992493498	-10.14269076729556	0	59.99791473941175	1.047161156533571	-5.037486236346017	0	0	44.9955992493498	-10.14269076729556	0	59.99791473941175	1.047161156533571	-5.037486236346017	0	0	-89.87051523357422	1.959290128394773	36.5111928941764	55.78542258851381	-30.47583608357261	65.93598563754234	34.48408940245013	1.459858688276461	0	0	0	-11.89337068955135	0	88.56897563356623	1.459858688276461	0	0
1.54	-41.37745486351661	-8.414299037538466	-157.8024174159453	0	0.9399999998679526	0	44.995601116842	-10.14247854651583	0	59.99791547869665	1.047161169436526	-5.037413475132391	0	0	44.995601116842	-10.14247854651583	0	59.99791547869665	1.047161169436526	-5.037413475132391	0	0	-89.63043212499832	1.983056336127353	36.59484631839795	55.80600645086355	-30.93786870095849	65.25501842560136	34.63673266494269	1.459428012241125	0	0	0	-11.89404482137603	0	88.56939774782221	1.459428012241125	0	0
1.55	-40.43001344169814	-8.34124368427522	-157.5572345118097	0	0.9399999998679526	0	44.99560290434923	-10.14227642550433	0	59.99791618869605	1.047161181828353	-5.037344258284554	0	0	44.99560290434923	-10.14227642550433	0	59.99791618869605	1.047161181828353	-5.037344258284554	0	0	-88.49979605964749	2.030384815414033	36.57159898288555	55.4716065912429	-31.12316308087654	64.54090273190734	34.78706835426863	1.459015213360531	0	0	0	-11.89469171287865	0	88.56980234034539	1.459015213360531	0	0
1.56	-39.14332036842056	-8.212084634701403	-157.1901802490125	0	0.9399999998679526	0	44.99560673555467	-10.14185154468903	0	59.99791772611602	1.047161208661394	-5.037199532874535	0	0	44.99560673555467	-10.14185154468903	0	59.99791772611602	1.047161208661394	-5.037199532874535	0	0	-86.77798601670465	2.211104830479428	36.38638365989404	55.02961911546121	-31.17237923356233	64.03874249079428	34.64536387548142	1.45812657061249	0	0	0	-11.89608899975545	0	88.57067331722698	1.45812657061249	0	0
1.57	-37.81160121485297	-8.030116943355871	-156.8314855727939	0	0.9399999998679526	0	44.99561167681133	-10.14129917237664	0	59.99791969607532	1.04716124304367	-5.0370111085092	0	0	44.99561167681133	-10.14129917237664	0	59.99791969607532	1.04716124304367	-5.0370111085092	0	0	-84.96101104448819	2.307884602492654	36.24243723341122	54.47079620037062	-31.22345232407853	63.22414137336478	34.58134255049023	1.456983222076158	0	0	0	-11.89788315864672	0	88.57179393633031	1.456983222076158	0	0
1.58	-36.19442323647714	-7.891281341083536	-156.1557803104841	0	0.9399999998679526	0	44.99561648736026	-10.14076509864271	0	59.99792161932451	1.047161276610701	-5.036829322915588	0	0	44.99561648736026	-10.14076509864271	0	59.99792161932451	1.047161276610701	-5.036829322915588	0	0	-82.79573307883682	2.664516100801069	35.97315025289976	53.74227445949334	-31.41764744964771	62.26842543833408	34.84421489346149	1.455868564323375	0	0	0	-11.89963414339805	0	88.5728864350892	1.455868564323375	0	0
1.59	-34.37146844924732	-7.706941987370116	-155.4715067718285	0	0.9399999998679526	0	44.9956219533693	-10.14015818600257	0	59.99792380090496	1.047161314686462	-5.036622849848107	0	0	44.9956219533693	-10.14015818600257	0	59.99792380090496	1.047161314686462	-5.036622849848107	0	0	-80.3705330739751	2.972446604337104	35.66679936167115	52.86904003403298	-31.68926004134565	61.09145959733213	35.17718011307294	1.454602573303443	0	0	0	-11.90162201746336	0	88.57412725864783	1.454602573303443	0	0
1.6	-32.52308826912446	-7.692985321565864	-154.0226873575737	0	0.9399999998679526	0	44.99571409718188	-10.13359709165613	0	59.99797075897212	1.047162134259345	-5.034628566658609	0	0	44.99571409718188	-10.13359709165613	0	59.99797075897212	1.047162134259345	-5.034628566658609	0	0	-77.90285404362703	3.927288096309092	34.9869549054181	52.09237902717157	-31.96274131566103	60.17388356800392	35.83280120296406	1.430885043931235	0	0	0	-11.94203451362128	0	88.59737339787286	1.430885043931235	0	0
1.61	-30.7859711090957	-7.794733749435616	-152.2049332568715	0	0.9399999998679526	0	44.9957208527626	-10.13288935678521	0	59.99797349202472	1.047162181960111	-5.034391959361414	0	0	44.9957208527626	-10.13288935678521	0	59.99797349202472	1.047162181960111	-5.034391959361414	0	0	-75.5781578824183	5.224419384083152	34.04671255751426	51.17941171508047	-32.3361557646291	59.05145289134209	36.39018914118641	1.429303000131039	0	0	0	-11.94453813013305	0	88.59892399213841	1.429303000131039	0	0
1.62	-30.68094316069312	-8.480770973345775	-149.7652878166952	0	0.9399999998679526	0	44.99572533970651	-10.13240815230839	0	59.99797528417383	1.047162213239014	-5.03423009633062	0	0	44.99572533970651	-10.13240815230839	0	59.99797528417383	1.047162213239014	-5.03423009633062	0	0	-74.86712567000468	7.378602162784526	32.97312459446164	50.10805125538199	-32.78484761365313	57.86366022592771	37.1087233347189	1.428257702605553	0	0	0	-11.94618585334914	0	88.59994850992827	1.428257702605553	0	0
1.63	-32.29118580705308	-9.208533052763318	-148.9066915425137	0	0.9399999998679526	0	44.99573043593328	-10.13186108281601	0	59.99797731487259	1.047162248681393	-5.03404614075736	0	0	44.99573043593328	-10.13186108281601	0	59.99797731487259	1.047162248681393	-5.03404614075736	0	0	-75.74498187869574	8.405906365298501	33.14429871696888	48.94833907618899	-33.25507241963208	56.43830408311602	37.91154982788701	1.42707129150844	0	0	0	-11.94805479691865	0	88.60111133602776	1.42707129150844	0	0
1.64	-34.94997364682709	-9.367501306508505	-150.8765386437188	0	0.9399999998679526	0	44.99577019052963	-10.12895041537397	0	59.99799744282299	1.0471625999804	-5.033149772569864	0	0	44.99577019052963	-10.12895041537397	0	59.99799744282299	1.0471625999804	-5.033149772569864	0	0	-77.47199867010522	7.089177216917066	34.91824983708857	47.86565594893953	-33.76411123885018	55.00846919298264	38.7723473862596	1.416864315354213	0	0	0	-11.96542458635244	0	88.61111544590236	1.416864315354213	0	0
1.65	-33.74112647956328	-8.488034144983564	-152.5022968331639	0	0.9399999998679526	0	44.99583103768984	-10.1245924779582	0	59.99802830236193	1.04716313858096	-5.031818030155039	0	0	44.99583103768984	-10.1245924779582	0	59.99802830236193	1.04716313858096	-5.031818030155039	0	0	-75.2279868554854	5.328038374433202	35.8714961046506	46.66209644461022	-34.40706624588446	53.4597478449333	39.87374070881815	1.401186871106824	0	0	0	-11.99216617341291	0	88.6264812988391	1.401186871106824	0	0
1.66	-31.95559788910873	-7.921170498557554	-152.8140130924554	0	0.9399999998679526	0	44.99591364503469	-10.11880327284966	0	59.99807003159842	1.047163866893531	-5.030064383080899	0	0	44.99591364503469	-10.11880327284966	0	59.99807003159842	1.047163866893531	-5.030064383080899	0	0	-72.50403907519245	4.605390287301568	36.18905004432361	45.30093252259257	-35.03506436001085	51.75311521177646	40.89361867537216	1.379844426266877	0	0	0	-12.02863010245769	0	88.64739956150207	1.379844426266877	0	0
